<svg id="Layer_1" data-name="Layer 1" xmlns="http://www.w3.org/2000/svg" viewBox="0 0 512 512"><defs><style>.cls-1{fill:#40969a;}.cls-2,.cls-3{fill:none;stroke-linecap:round;stroke-linejoin:round;stroke-width:35px;}.cls-2{stroke:#1a1a1a;}.cls-3{stroke:#e6e6e6;}</style></defs><rect class="cls-1" width="512" height="512" rx="92.54"/><path class="cls-2" d="M279.89,150.28A50.43,50.43,0,1,0,179,150c0,.8,0,1.6.05,2.4a67.26,67.26,0,0,0-42.47,97A67.24,67.24,0,0,0,146,360.13a67.24,67.24,0,1,0,133.37,17.24,66,66,0,0,0,.56-8.55Z" transform="translate(-1)"/><path class="cls-2" d="M229.46,284.77a75.65,75.65,0,0,0,50.43-67.24" transform="translate(-1)"/><path class="cls-2" d="M179.08,152.39a50.29,50.29,0,0,0,6.69,23.11" transform="translate(-1)"/><path class="cls-2" d="M136.61,249.4a68.27,68.27,0,0,1,9.84-6.66" transform="translate(-1)"/><path class="cls-2" d="M179,368.82A67.21,67.21,0,0,1,146,360.15" transform="translate(-1)"/><path class="cls-2" d="M279.89,284.77h67.24" transform="translate(-1)"/><path class="cls-2" d="M279.89,368.82H380.75a33.62,33.62,0,0,1,33.62,33.62v16.81" transform="translate(-1)"/><path class="cls-2" d="M279.89,200.72H414.37" transform="translate(-1)"/><path class="cls-2" d="M347.13,200.72V150.28a33.62,33.62,0,0,1,33.62-33.62" transform="translate(-1)"/><circle class="cls-2" cx="346.13" cy="284.77" r="8.41"/><circle class="cls-2" cx="379.75" cy="116.66" r="8.41"/><circle class="cls-2" cx="413.37" cy="419.25" r="8.41"/><circle class="cls-2" cx="413.37" cy="200.72" r="8.41"/><path class="cls-3" d="M262.89,131.28A50.43,50.43,0,1,0,162,131c0,.8,0,1.6.05,2.4a67.26,67.26,0,0,0-42.47,97A67.24,67.24,0,0,0,129,341.13a67.24,67.24,0,1,0,133.37,17.24,66,66,0,0,0,.56-8.55Z" transform="translate(-1)"/><path class="cls-3" d="M212.46,265.77a75.65,75.65,0,0,0,50.43-67.24" transform="translate(-1)"/><path class="cls-3" d="M162.08,133.39a50.29,50.29,0,0,0,6.69,23.11" transform="translate(-1)"/><path class="cls-3" d="M119.61,230.4a68.27,68.27,0,0,1,9.84-6.66" transform="translate(-1)"/><path class="cls-3" d="M162,349.82A67.21,67.21,0,0,1,129,341.15" transform="translate(-1)"/><path class="cls-3" d="M262.89,265.77h67.24" transform="translate(-1)"/><path class="cls-3" d="M262.89,349.82H363.75a33.62,33.62,0,0,1,33.62,33.62v16.81" transform="translate(-1)"/><path class="cls-3" d="M262.89,181.72H397.37" transform="translate(-1)"/><path class="cls-3" d="M330.13,181.72V131.28a33.62,33.62,0,0,1,33.62-33.62" transform="translate(-1)"/><circle class="cls-3" cx="329.13" cy="265.77" r="8.41"/><circle class="cls-3" cx="362.75" cy="97.66" r="8.41"/><circle class="cls-3" cx="396.37" cy="400.25" r="8.41"/><circle class="cls-3" cx="396.37" cy="181.72" r="8.41"/></svg>